<mxfile host="app.diagrams.net" agent="Mozilla/5.0 (X11; Ubuntu; Linux x86_64; rv:132.0) Gecko/20100101 Firefox/132.0" version="25.0.3">
  <diagram name="Page-1" id="Ymyvq1QeKOxkSajt7k74">
    <mxGraphModel grid="1" page="1" gridSize="10" guides="1" tooltips="1" connect="1" arrows="1" fold="1" pageScale="1" pageWidth="850" pageHeight="1100" math="0" shadow="0">
      <root>
        <mxCell id="0" />
        <mxCell id="1" parent="0" />
        <mxCell id="mmN4qo54hh4rbtsLZFQJ-1" value="User / Businessman" style="shape=umlActor;verticalLabelPosition=bottom;verticalAlign=top;html=1;outlineConnect=0;labelPosition=center;align=center;" vertex="1" parent="1">
          <mxGeometry y="-820" width="40" height="80" as="geometry" />
        </mxCell>
        <mxCell id="mmN4qo54hh4rbtsLZFQJ-2" value="Presentation Layer&lt;br&gt;&amp;lt;React&amp;gt;" style="verticalAlign=top;align=left;spacingTop=8;spacingLeft=2;spacingRight=12;shape=cube;size=10;direction=south;fontStyle=4;html=1;whiteSpace=wrap;" vertex="1" parent="1">
          <mxGeometry x="84" y="-900" width="240" height="480" as="geometry" />
        </mxCell>
        <mxCell id="mmN4qo54hh4rbtsLZFQJ-3" value="" style="shape=datastore;whiteSpace=wrap;html=1;" vertex="1" parent="1">
          <mxGeometry x="1244" y="-700" width="120" height="80" as="geometry" />
        </mxCell>
        <mxCell id="mmN4qo54hh4rbtsLZFQJ-8" value="Lifeguard" style="shape=umlActor;verticalLabelPosition=bottom;verticalAlign=top;html=1;outlineConnect=0;labelPosition=center;align=center;" vertex="1" parent="1">
          <mxGeometry y="-580" width="40" height="80" as="geometry" />
        </mxCell>
        <mxCell id="mmN4qo54hh4rbtsLZFQJ-11" value="Relational&lt;br&gt;Database" style="text;html=1;align=center;verticalAlign=middle;whiteSpace=wrap;rounded=0;fontStyle=0" vertex="1" parent="1">
          <mxGeometry x="1244" y="-660" width="120" height="30" as="geometry" />
        </mxCell>
        <mxCell id="mmN4qo54hh4rbtsLZFQJ-19" value="&lt;div&gt;Beachgoer&lt;br&gt;&amp;lt;Mobile&amp;gt;&lt;br&gt;&lt;/div&gt;" style="verticalAlign=top;align=left;spacingTop=8;spacingLeft=2;spacingRight=12;shape=cube;size=10;direction=south;fontStyle=4;html=1;whiteSpace=wrap;" vertex="1" parent="1">
          <mxGeometry x="130" y="-810" width="160" height="80" as="geometry" />
        </mxCell>
        <mxCell id="mmN4qo54hh4rbtsLZFQJ-20" value="&lt;div&gt;Lifeguard Interface&lt;br&gt;&amp;lt;Mobile&amp;gt;&lt;br&gt;&lt;/div&gt;" style="verticalAlign=top;align=left;spacingTop=8;spacingLeft=2;spacingRight=12;shape=cube;size=10;direction=south;fontStyle=4;html=1;whiteSpace=wrap;" vertex="1" parent="1">
          <mxGeometry x="130" y="-630" width="160" height="80" as="geometry" />
        </mxCell>
        <mxCell id="mmN4qo54hh4rbtsLZFQJ-21" value="&lt;div&gt;Lifeguard Supervisor Interface&lt;br&gt;&amp;lt;PC&amp;gt;&lt;br&gt;&lt;/div&gt;" style="verticalAlign=top;align=left;spacingTop=8;spacingLeft=2;spacingRight=12;shape=cube;size=10;direction=south;fontStyle=4;html=1;whiteSpace=wrap;" vertex="1" parent="1">
          <mxGeometry x="130" y="-520" width="160" height="80" as="geometry" />
        </mxCell>
        <mxCell id="mmN4qo54hh4rbtsLZFQJ-25" value="Interactive Map Module&lt;br&gt;&amp;lt;Open Street Map&amp;gt;" style="verticalAlign=top;align=left;spacingTop=8;spacingLeft=2;spacingRight=12;shape=cube;size=10;direction=south;fontStyle=4;html=1;whiteSpace=wrap;" vertex="1" parent="1">
          <mxGeometry x="644" y="-1060" width="280" height="80" as="geometry" />
        </mxCell>
        <mxCell id="RYxPCpG6oxt7A4X331qe-1" value="Reverse Proxy" style="verticalAlign=middle;align=center;spacingTop=8;spacingLeft=2;spacingRight=12;shape=cube;size=10;direction=south;fontStyle=4;html=1;whiteSpace=wrap;" vertex="1" parent="1">
          <mxGeometry x="404" y="-1100" width="160" height="880" as="geometry" />
        </mxCell>
        <mxCell id="RYxPCpG6oxt7A4X331qe-2" value="" style="endArrow=classic;startArrow=classic;html=1;rounded=0;entryX=0.467;entryY=0.992;entryDx=0;entryDy=0;entryPerimeter=0;spacing=3;" edge="1" parent="1">
          <mxGeometry width="50" height="50" relative="1" as="geometry">
            <mxPoint x="324" y="-661" as="sourcePoint" />
            <mxPoint x="405.27999999999975" y="-660.8" as="targetPoint" />
          </mxGeometry>
        </mxCell>
        <mxCell id="RYxPCpG6oxt7A4X331qe-3" value="Regular Account Management Module" style="verticalAlign=top;align=left;spacingTop=8;spacingLeft=2;spacingRight=12;shape=cube;size=10;direction=south;fontStyle=4;html=1;whiteSpace=wrap;" vertex="1" parent="1">
          <mxGeometry x="644" y="-940" width="280" height="80" as="geometry" />
        </mxCell>
        <mxCell id="RYxPCpG6oxt7A4X331qe-4" value="Business Account Management Module" style="verticalAlign=top;align=left;spacingTop=8;spacingLeft=2;spacingRight=12;shape=cube;size=10;direction=south;fontStyle=4;html=1;whiteSpace=wrap;" vertex="1" parent="1">
          <mxGeometry x="644" y="-820" width="280" height="80" as="geometry" />
        </mxCell>
        <mxCell id="RYxPCpG6oxt7A4X331qe-5" value="Hazards Module" style="verticalAlign=top;align=left;spacingTop=8;spacingLeft=2;spacingRight=12;shape=cube;size=10;direction=south;fontStyle=4;html=1;whiteSpace=wrap;" vertex="1" parent="1">
          <mxGeometry x="644" y="-700" width="280" height="80" as="geometry" />
        </mxCell>
        <mxCell id="RYxPCpG6oxt7A4X331qe-6" value="Regular Lifeguard Account Manegement Module" style="verticalAlign=top;align=left;spacingTop=8;spacingLeft=2;spacingRight=12;shape=cube;size=10;direction=south;fontStyle=4;html=1;whiteSpace=wrap;" vertex="1" parent="1">
          <mxGeometry x="644" y="-580" width="280" height="80" as="geometry" />
        </mxCell>
        <mxCell id="RYxPCpG6oxt7A4X331qe-7" value="Supervisor Accounts Management Module" style="verticalAlign=top;align=left;spacingTop=8;spacingLeft=2;spacingRight=12;shape=cube;size=10;direction=south;fontStyle=4;html=1;whiteSpace=wrap;" vertex="1" parent="1">
          <mxGeometry x="644" y="-460" width="280" height="80" as="geometry" />
        </mxCell>
        <mxCell id="RYxPCpG6oxt7A4X331qe-9" value="Communication Channel Layer" style="verticalAlign=top;align=left;spacingTop=8;spacingLeft=2;spacingRight=12;shape=cube;size=10;direction=south;fontStyle=4;html=1;whiteSpace=wrap;" vertex="1" parent="1">
          <mxGeometry x="644" y="-340" width="280" height="80" as="geometry" />
        </mxCell>
        <mxCell id="RYxPCpG6oxt7A4X331qe-10" value="Query Queue" style="verticalAlign=middle;align=center;spacingTop=8;spacingLeft=2;spacingRight=12;shape=cube;size=10;direction=south;fontStyle=4;html=1;whiteSpace=wrap;" vertex="1" parent="1">
          <mxGeometry x="1004" y="-1100" width="160" height="880" as="geometry" />
        </mxCell>
        <mxCell id="RYxPCpG6oxt7A4X331qe-11" value="Reverse Proxy" style="verticalAlign=middle;align=center;spacingTop=8;spacingLeft=2;spacingRight=12;shape=cube;size=10;direction=south;fontStyle=4;html=1;whiteSpace=wrap;" vertex="1" parent="1">
          <mxGeometry x="284" y="-140" width="1000" height="120" as="geometry" />
        </mxCell>
        <mxCell id="mmN4qo54hh4rbtsLZFQJ-31" value="Authentication &amp;amp; Authorization Module" style="verticalAlign=top;align=left;spacingTop=8;spacingLeft=2;spacingRight=12;shape=cube;size=10;direction=south;fontStyle=4;html=1;whiteSpace=wrap;" vertex="1" parent="1">
          <mxGeometry x="324" y="-110" width="140" height="70" as="geometry" />
        </mxCell>
        <mxCell id="mmN4qo54hh4rbtsLZFQJ-41" value="Payment Module" style="verticalAlign=top;align=left;spacingTop=8;spacingLeft=2;spacingRight=12;shape=cube;size=10;direction=south;fontStyle=4;html=1;whiteSpace=wrap;" vertex="1" parent="1">
          <mxGeometry x="504" y="-110" width="140" height="70" as="geometry" />
        </mxCell>
        <mxCell id="RYxPCpG6oxt7A4X331qe-13" value="Open Street Map" style="verticalAlign=top;align=left;spacingTop=8;spacingLeft=2;spacingRight=12;shape=cube;size=10;direction=south;fontStyle=4;html=1;whiteSpace=wrap;" vertex="1" parent="1">
          <mxGeometry x="1014" y="-110" width="140" height="70" as="geometry" />
        </mxCell>
        <mxCell id="RYxPCpG6oxt7A4X331qe-14" value="" style="endArrow=classic;startArrow=classic;html=1;rounded=0;entryX=0.504;entryY=1;entryDx=0;entryDy=0;entryPerimeter=0;" edge="1" parent="1" target="mmN4qo54hh4rbtsLZFQJ-25">
          <mxGeometry width="50" height="50" relative="1" as="geometry">
            <mxPoint x="564" y="-1020" as="sourcePoint" />
            <mxPoint x="954" y="-660" as="targetPoint" />
          </mxGeometry>
        </mxCell>
        <mxCell id="RYxPCpG6oxt7A4X331qe-15" value="" style="endArrow=classic;startArrow=classic;html=1;rounded=0;entryX=0.504;entryY=1;entryDx=0;entryDy=0;entryPerimeter=0;" edge="1" parent="1">
          <mxGeometry width="50" height="50" relative="1" as="geometry">
            <mxPoint x="565" y="-900" as="sourcePoint" />
            <mxPoint x="645" y="-900" as="targetPoint" />
          </mxGeometry>
        </mxCell>
        <mxCell id="RYxPCpG6oxt7A4X331qe-16" value="" style="endArrow=classic;startArrow=classic;html=1;rounded=0;entryX=0.504;entryY=1;entryDx=0;entryDy=0;entryPerimeter=0;" edge="1" parent="1">
          <mxGeometry width="50" height="50" relative="1" as="geometry">
            <mxPoint x="565" y="-780" as="sourcePoint" />
            <mxPoint x="645" y="-780" as="targetPoint" />
          </mxGeometry>
        </mxCell>
        <mxCell id="RYxPCpG6oxt7A4X331qe-17" value="" style="endArrow=classic;startArrow=classic;html=1;rounded=0;entryX=0.504;entryY=1;entryDx=0;entryDy=0;entryPerimeter=0;" edge="1" parent="1">
          <mxGeometry width="50" height="50" relative="1" as="geometry">
            <mxPoint x="565" y="-660" as="sourcePoint" />
            <mxPoint x="645" y="-660" as="targetPoint" />
          </mxGeometry>
        </mxCell>
        <mxCell id="RYxPCpG6oxt7A4X331qe-18" value="" style="endArrow=classic;startArrow=classic;html=1;rounded=0;entryX=0.504;entryY=1;entryDx=0;entryDy=0;entryPerimeter=0;" edge="1" parent="1">
          <mxGeometry width="50" height="50" relative="1" as="geometry">
            <mxPoint x="565" y="-541" as="sourcePoint" />
            <mxPoint x="645" y="-541" as="targetPoint" />
          </mxGeometry>
        </mxCell>
        <mxCell id="RYxPCpG6oxt7A4X331qe-19" value="" style="endArrow=classic;startArrow=classic;html=1;rounded=0;entryX=0.504;entryY=1;entryDx=0;entryDy=0;entryPerimeter=0;" edge="1" parent="1">
          <mxGeometry width="50" height="50" relative="1" as="geometry">
            <mxPoint x="565" y="-421" as="sourcePoint" />
            <mxPoint x="645" y="-421" as="targetPoint" />
          </mxGeometry>
        </mxCell>
        <mxCell id="RYxPCpG6oxt7A4X331qe-20" value="" style="endArrow=classic;startArrow=classic;html=1;rounded=0;entryX=0.504;entryY=1;entryDx=0;entryDy=0;entryPerimeter=0;" edge="1" parent="1">
          <mxGeometry width="50" height="50" relative="1" as="geometry">
            <mxPoint x="565" y="-301" as="sourcePoint" />
            <mxPoint x="645" y="-301" as="targetPoint" />
          </mxGeometry>
        </mxCell>
        <mxCell id="RYxPCpG6oxt7A4X331qe-21" value="" style="endArrow=classic;startArrow=classic;html=1;rounded=0;entryX=0.504;entryY=1;entryDx=0;entryDy=0;entryPerimeter=0;" edge="1" parent="1">
          <mxGeometry width="50" height="50" relative="1" as="geometry">
            <mxPoint x="925" y="-301" as="sourcePoint" />
            <mxPoint x="1005" y="-301" as="targetPoint" />
          </mxGeometry>
        </mxCell>
        <mxCell id="RYxPCpG6oxt7A4X331qe-22" value="" style="endArrow=classic;startArrow=classic;html=1;rounded=0;entryX=0.504;entryY=1;entryDx=0;entryDy=0;entryPerimeter=0;" edge="1" parent="1">
          <mxGeometry width="50" height="50" relative="1" as="geometry">
            <mxPoint x="925" y="-421" as="sourcePoint" />
            <mxPoint x="1005" y="-421" as="targetPoint" />
          </mxGeometry>
        </mxCell>
        <mxCell id="RYxPCpG6oxt7A4X331qe-23" value="" style="endArrow=classic;startArrow=classic;html=1;rounded=0;entryX=0.504;entryY=1;entryDx=0;entryDy=0;entryPerimeter=0;" edge="1" parent="1">
          <mxGeometry width="50" height="50" relative="1" as="geometry">
            <mxPoint x="925" y="-541" as="sourcePoint" />
            <mxPoint x="1005" y="-541" as="targetPoint" />
          </mxGeometry>
        </mxCell>
        <mxCell id="RYxPCpG6oxt7A4X331qe-24" value="" style="endArrow=classic;startArrow=classic;html=1;rounded=0;entryX=0.504;entryY=1;entryDx=0;entryDy=0;entryPerimeter=0;" edge="1" parent="1">
          <mxGeometry width="50" height="50" relative="1" as="geometry">
            <mxPoint x="925" y="-661" as="sourcePoint" />
            <mxPoint x="1005" y="-661" as="targetPoint" />
          </mxGeometry>
        </mxCell>
        <mxCell id="RYxPCpG6oxt7A4X331qe-25" value="" style="endArrow=classic;startArrow=classic;html=1;rounded=0;entryX=0.504;entryY=1;entryDx=0;entryDy=0;entryPerimeter=0;" edge="1" parent="1">
          <mxGeometry width="50" height="50" relative="1" as="geometry">
            <mxPoint x="925" y="-781" as="sourcePoint" />
            <mxPoint x="1005" y="-781" as="targetPoint" />
          </mxGeometry>
        </mxCell>
        <mxCell id="RYxPCpG6oxt7A4X331qe-26" value="" style="endArrow=classic;startArrow=classic;html=1;rounded=0;entryX=0.504;entryY=1;entryDx=0;entryDy=0;entryPerimeter=0;" edge="1" parent="1">
          <mxGeometry width="50" height="50" relative="1" as="geometry">
            <mxPoint x="925" y="-901" as="sourcePoint" />
            <mxPoint x="1005" y="-901" as="targetPoint" />
          </mxGeometry>
        </mxCell>
        <mxCell id="RYxPCpG6oxt7A4X331qe-27" value="" style="endArrow=classic;startArrow=classic;html=1;rounded=0;entryX=0.504;entryY=1;entryDx=0;entryDy=0;entryPerimeter=0;" edge="1" parent="1">
          <mxGeometry width="50" height="50" relative="1" as="geometry">
            <mxPoint x="925" y="-1021" as="sourcePoint" />
            <mxPoint x="1005" y="-1021" as="targetPoint" />
          </mxGeometry>
        </mxCell>
        <mxCell id="RYxPCpG6oxt7A4X331qe-28" value="" style="endArrow=classic;startArrow=classic;html=1;rounded=0;entryX=0.504;entryY=1;entryDx=0;entryDy=0;entryPerimeter=0;" edge="1" parent="1">
          <mxGeometry width="50" height="50" relative="1" as="geometry">
            <mxPoint x="1165" y="-661" as="sourcePoint" />
            <mxPoint x="1245" y="-661" as="targetPoint" />
          </mxGeometry>
        </mxCell>
        <mxCell id="RYxPCpG6oxt7A4X331qe-29" value="" style="endArrow=classic;startArrow=classic;html=1;rounded=0;" edge="1" parent="1">
          <mxGeometry width="50" height="50" relative="1" as="geometry">
            <mxPoint x="1084" y="-220" as="sourcePoint" />
            <mxPoint x="1084" y="-110" as="targetPoint" />
          </mxGeometry>
        </mxCell>
        <mxCell id="RYxPCpG6oxt7A4X331qe-31" value="" style="endArrow=classic;startArrow=classic;html=1;rounded=0;" edge="1" parent="1">
          <mxGeometry width="50" height="50" relative="1" as="geometry">
            <mxPoint x="444" y="-220" as="sourcePoint" />
            <mxPoint x="444" y="-110" as="targetPoint" />
          </mxGeometry>
        </mxCell>
        <mxCell id="RYxPCpG6oxt7A4X331qe-32" value="" style="endArrow=classic;startArrow=classic;html=1;rounded=0;" edge="1" parent="1">
          <mxGeometry width="50" height="50" relative="1" as="geometry">
            <mxPoint x="524" y="-220" as="sourcePoint" />
            <mxPoint x="524" y="-110" as="targetPoint" />
          </mxGeometry>
        </mxCell>
        <mxCell id="t5F7bOH5cAO0P2yJ1PZ1-1" value="&lt;font style=&quot;font-size: 20px;&quot;&gt;&lt;b&gt;&lt;font&gt;SPLASH&lt;/font&gt;&lt;/b&gt;&lt;/font&gt;&lt;div&gt;&lt;font style=&quot;font-size: 20px;&quot;&gt;&lt;b&gt;&lt;font&gt;Grupo 14 (DR)&lt;/font&gt;&lt;/b&gt;&lt;/font&gt;&lt;/div&gt;&lt;div&gt;&lt;font style=&quot;font-size: 20px;&quot;&gt;&lt;b&gt;&lt;font&gt;V2024/12/03&lt;/font&gt;&lt;/b&gt;&lt;/font&gt;&lt;/div&gt;" style="shape=note;size=20;whiteSpace=wrap;html=1;fillColor=#dae8fc;strokeColor=#6c8ebf;" vertex="1" parent="1">
          <mxGeometry x="84" y="-1100" width="172.5" height="140" as="geometry" />
        </mxCell>
      </root>
    </mxGraphModel>
  </diagram>
</mxfile>
